<!-- Generated by IcoMoon.io -->
<svg version="1.1" xmlns="http://www.w3.org/2000/svg" width="32" height="32" viewBox="0 0 32 32">
<title>arrow-top</title>
<path d="M17.356 8.081c-0.597-0.759-1.681-0.759-2.278 0l-4.393 5.695c-0.705 0.922-0.054 2.332 1.139 2.332 0.814 0 1.41 0.651 1.41 1.464v5.153c0 0.814 0.651 1.464 1.41 1.464h3.037c0.814 0 1.41-0.651 1.41-1.464v-5.153c0-0.814 0.651-1.464 1.41-1.464 1.193 0 1.844-1.356 1.139-2.332l-4.285-5.695z"></path>
<path d="M16 0c-8.841 0-16 7.159-16 16s7.159 16 16 16 16-7.159 16-16-7.159-16-16-16zM16 30.373c-7.919 0-14.373-6.454-14.373-14.373s6.454-14.373 14.373-14.373 14.373 6.454 14.373 14.373-6.454 14.373-14.373 14.373z"></path>
</svg>
