<svg
        xmlns="http://www.w3.org/2000/svg"
        xmlns:xlink="http://www.w3.org/1999/xlink"
        width="53px" height="53px">
    <path fill-rule="evenodd"  fill="rgb(255, 255, 255)"
          d="M26.496,0.977 C11.858,0.977 -0.004,10.536 -0.004,22.326 C-0.004,33.647 10.934,42.915 24.767,43.630 L22.568,50.498 C22.049,52.126 24.280,52.969 25.431,51.851 L35.004,42.557 C45.467,39.696 52.999,31.721 52.999,22.326 C52.999,10.536 41.133,0.977 26.496,0.977 ZM13.332,25.799 C11.671,25.799 10.322,24.446 10.322,22.777 C10.322,21.107 11.671,19.754 13.332,19.754 C14.992,19.754 16.338,21.107 16.338,22.777 C16.338,24.446 14.992,25.799 13.332,25.799 ZM26.133,25.799 C24.472,25.799 23.124,24.446 23.124,22.777 C23.124,21.107 24.472,19.754 26.133,19.754 C27.794,19.754 29.139,21.107 29.139,22.777 C29.139,24.446 27.794,25.799 26.133,25.799 ZM39.300,25.799 C37.640,25.799 36.291,24.446 36.291,22.777 C36.291,21.107 37.640,19.754 39.300,19.754 C40.960,19.754 42.307,21.107 42.307,22.777 C42.307,24.446 40.960,25.799 39.300,25.799 Z"/>
</svg>