<!-- Generated by IcoMoon.io -->
<svg version="1.1" xmlns="http://www.w3.org/2000/svg" width="32" height="32" viewBox="0 0 32 32">
<title>home</title>
<path d="M31.464 16.427l-4.855-4.781v-5.532c0-0.998-0.827-1.809-1.845-1.809-0.999 0-1.82 0.811-1.82 1.809v1.903l-3.611-3.572c-1.785-1.749-4.898-1.749-6.683 0.012l-12.119 11.969c-0.708 0.704-0.708 1.856 0 2.573 0.714 0.693 1.873 0.693 2.594 0l1.345-1.34c-0.024 0.095-0.047 0.177-0.047 0.282v7.657c0 1.809 1.488 3.266 3.302 3.266h5.29v-8.069h5.963v8.069h5.283c1.821 0 3.295-1.457 3.295-3.266v-7.657c0-0.106-0.011-0.188-0.040-0.282l1.35 1.34c0.357 0.34 0.833 0.527 1.297 0.527 0.47 0 0.94-0.188 1.302-0.527 0.714-0.717 0.714-1.869 0-2.573z"></path>
</svg>
