<svg
        xmlns="http://www.w3.org/2000/svg"
        xmlns:xlink="http://www.w3.org/1999/xlink"
        width="50px" height="28px">
    <path fill-rule="evenodd"  fill="rgb(255, 255, 255)"
          d="M31.894,12.106 C33.242,12.106 34.591,11.583 35.611,10.539 L44.988,0.940 C44.598,0.861 44.195,0.819 43.782,0.819 L20.080,0.819 C19.591,0.819 19.117,0.883 18.660,0.992 L28.214,10.577 C29.231,11.597 30.563,12.106 31.894,12.106 ZM48.074,2.594 L38.009,12.897 C36.385,14.560 34.213,15.475 31.894,15.475 C29.607,15.475 27.457,14.581 25.840,12.959 L15.653,2.740 C14.623,3.835 13.988,5.307 13.988,6.931 L13.988,9.579 L12.333,9.579 C11.640,9.579 11.074,10.148 11.074,10.843 C11.074,11.537 11.640,12.106 12.333,12.106 L13.988,12.106 L13.988,14.730 L6.561,14.730 C5.868,14.730 5.302,15.298 5.302,15.993 C5.302,16.688 5.868,17.256 6.561,17.256 L13.988,17.256 L13.988,19.880 L2.153,19.880 C1.461,19.880 0.894,20.448 0.894,21.143 C0.894,21.838 1.461,22.406 2.153,22.406 L14.060,22.406 C14.422,25.436 16.963,27.793 20.080,27.793 L43.782,27.793 C47.147,27.793 49.874,25.056 49.874,21.681 L49.874,6.931 C49.874,5.235 49.185,3.701 48.074,2.594 Z"/>
</svg>