<!-- Generated by IcoMoon.io -->
<svg version="1.1" xmlns="http://www.w3.org/2000/svg" width="32" height="32" viewBox="0 0 32 32">
<title>info</title>
<path d="M22.854 30.275v1.482c0 0.135-0.109 0.243-0.24 0.243h-13.234c-0.133 0-0.241-0.109-0.241-0.243v-1.872c0-0.106 0.070-0.2 0.171-0.229 0.2-0.056 0.449-0.034 0.657-0.050 0.234-0.017 0.469-0.035 0.702-0.056 0.511-0.046 0.968-0.12 1.372-0.225s0.743-0.246 1.019-0.424c0.277-0.181 0.415-0.403 0.415-0.673v-15.164c-0.080-0.804-0.441-0.921-0.441-0.921l-3.179-1.17c-0.182-0.197-0.097-0.367-0.087-0.389 0.001 0 0.001-0.002 0.001-0.002 0.129-0.309 1.35-0.434 1.546-0.491 2.358-0.539 4.715-1.079 7.073-1.62h0.382v20.027c0.085 0.299 0.266 0.514 0.543 0.649 0.479 0.232 1.040 0.325 1.562 0.399 0.579 0.082 1.174 0.073 1.749 0.087 0.053 0 0.115 0.015 0.139 0.059-0.008-0.010-0.015-0.019-0.024-0.029 0.011 0.010 0.023 0.023 0.032 0.035 0.002 0.003 0.003 0.005 0.003 0.007 0.010 0.010 0.017 0.022 0.024 0.034 0.087 0.155 0.054 0.361 0.054 0.535zM17.975 6.416c-0.716 0.726-1.604 1.087-2.665 1.087-1.016 0-1.892-0.374-2.63-1.121-0.737-0.747-1.106-1.636-1.106-2.665 0-1.075 0.355-1.964 1.073-2.666 0.714-0.702 1.601-1.051 2.664-1.051 1.060 0 1.948 0.35 2.665 1.051 0.714 0.702 1.073 1.591 1.073 2.666s-0.359 1.976-1.073 2.699z"></path>
</svg>
