<!-- Generated by IcoMoon.io -->
<svg version="1.1" xmlns="http://www.w3.org/2000/svg" width="32" height="32" viewBox="0 0 32 32">
<title>lupa</title>
<path d="M20.491 20.491c-3.573 3.575-9.389 3.575-12.962 0-3.575-3.573-3.575-9.387 0-12.962 1.786-1.787 4.134-2.681 6.48-2.681 2.348 0 4.694 0.894 6.482 2.681 3.573 3.575 3.573 9.389 0 12.962zM31.29 27.861l-5.812-5.814c3.831-5.464 3.322-13.069-1.556-17.949-5.466-5.464-14.357-5.464-19.823 0-5.464 5.466-5.464 14.359 0 19.823 2.732 2.732 6.322 4.1 9.911 4.1 2.82 0 5.634-0.858 8.038-2.543l5.812 5.814c0.474 0.472 1.094 0.709 1.716 0.709 0.62 0 1.242-0.236 1.714-0.709 0.946-0.948 0.946-2.484 0-3.43z"></path>
</svg>
