<!-- Generated by IcoMoon.io -->
<svg version="1.1" xmlns="http://www.w3.org/2000/svg" width="32" height="32" viewBox="0 0 32 32">
<title>phone</title>
<path d="M26.863 27.485c-0.867-1.642-1.754-3.274-2.662-4.895-0.831-1.485-2.194-1.883-3.729-1.138-0.245 0.119-0.492 0.235-0.743 0.34-1.132 0.474-1.598 0.323-2.19-0.73-1.459-2.589-2.914-5.18-4.369-7.771-1.005-1.793-0.931-2.064 0.849-3.155 1.464-0.897 1.861-2.315 1.043-3.815-0.83-1.522-1.677-3.034-2.52-4.549-1.117-2.007-2.795-2.315-4.622-0.892-1.017 0.793-1.774 1.822-2.293 2.98-1.441 3.213-1.060 7.42 0.59 10.316 2.206 3.873 4.392 7.759 6.514 11.679 1.334 2.461 3.258 4.228 5.815 5.283 2.233 0.922 4.737 1.261 6.999 0.228 1.654-0.756 2.163-2.281 1.317-3.882z"></path>
</svg>
