<svg
        xmlns="http://www.w3.org/2000/svg"
        xmlns:xlink="http://www.w3.org/1999/xlink"
        width="250px" height="63px">
    <path fill-rule="evenodd" fill="rgb(102, 102, 102)"
          d="M145.831,62.400 L145.831,53.232 L133.451,53.232 L133.451,62.400 L129.073,62.400 L129.073,41.359 L133.451,41.359 L133.451,50.978 L145.831,50.978 L145.831,41.359 L150.209,41.359 L150.209,62.400 L145.831,62.400 ZM122.113,60.145 C121.056,61.087 119.788,61.799 118.309,62.280 C116.829,62.761 115.184,63.001 113.372,63.001 C111.560,63.001 109.909,62.761 108.420,62.280 C106.930,61.799 105.657,61.087 104.600,60.145 C103.544,59.204 102.728,58.041 102.155,56.659 C101.581,55.276 101.294,53.683 101.294,51.880 C101.294,50.076 101.581,48.483 102.155,47.100 C102.728,45.718 103.544,44.556 104.600,43.614 C105.657,42.672 106.930,41.961 108.420,41.479 C109.909,40.999 111.560,40.758 113.372,40.758 C115.184,40.758 116.829,40.999 118.309,41.479 C119.788,41.961 121.056,42.672 122.113,43.614 C123.170,44.556 123.990,45.718 124.574,47.100 C125.158,48.483 125.450,50.076 125.450,51.880 C125.450,53.683 125.158,55.276 124.574,56.659 C123.990,58.041 123.170,59.204 122.113,60.145 ZM120.181,47.867 C119.788,46.735 119.260,45.798 118.595,45.056 C117.931,44.315 117.151,43.764 116.256,43.403 C115.360,43.042 114.398,42.862 113.372,42.862 C112.345,42.862 111.384,43.042 110.488,43.403 C109.592,43.764 108.812,44.315 108.148,45.056 C107.484,45.798 106.956,46.735 106.563,47.867 C106.171,48.999 105.974,50.337 105.974,51.880 C105.974,53.423 106.171,54.760 106.563,55.892 C106.956,57.025 107.484,57.962 108.148,58.702 C108.812,59.444 109.592,59.995 110.488,60.356 C111.384,60.717 112.345,60.897 113.372,60.897 C114.398,60.897 115.360,60.717 116.256,60.356 C117.151,59.995 117.931,59.444 118.595,58.702 C119.260,57.962 119.788,57.025 120.181,55.892 C120.573,54.760 120.769,53.423 120.769,51.880 C120.770,50.337 120.573,48.999 120.181,47.867 ZM93.293,45.267 L92.991,45.267 L81.668,62.400 L75.931,62.400 L75.931,41.359 L80.310,41.359 L80.310,58.492 L80.611,58.492 L91.934,41.359 L97.671,41.359 L97.671,62.400 L93.293,62.400 L93.293,45.267 ZM70.044,54.149 C69.218,54.780 68.206,55.261 67.009,55.592 C65.812,55.922 64.458,56.087 62.948,56.087 L56.456,56.087 L56.456,62.400 L52.078,62.400 L52.078,41.359 L62.948,41.359 C64.458,41.359 65.812,41.525 67.009,41.855 C68.206,42.186 69.218,42.667 70.044,43.298 C70.869,43.929 71.503,44.701 71.946,45.613 C72.388,46.525 72.610,47.561 72.610,48.723 C72.610,49.886 72.388,50.923 71.946,51.834 C71.503,52.746 70.869,53.518 70.044,54.149 ZM66.647,44.861 C65.771,44.030 64.538,43.614 62.948,43.614 L56.456,43.614 L56.456,53.833 L62.948,53.833 C64.538,53.833 65.771,53.418 66.647,52.586 C67.523,51.755 67.960,50.467 67.960,48.723 C67.960,46.980 67.523,45.693 66.647,44.861 ZM24.562,62.938 C11.143,62.938 0.266,52.096 0.266,38.720 C0.266,34.605 1.298,30.732 3.114,27.339 C3.360,26.879 3.620,26.427 3.895,25.986 C4.133,27.648 4.492,29.429 5.018,31.250 C5.079,31.460 5.140,31.671 5.206,31.883 C5.197,31.907 5.190,31.932 5.181,31.957 C4.638,33.502 4.276,35.132 4.120,36.821 C4.062,37.447 4.030,38.080 4.030,38.720 C4.030,50.024 13.223,59.187 24.562,59.187 C35.901,59.187 45.094,50.024 45.094,38.720 C45.094,27.417 35.901,18.254 24.562,18.254 C20.887,18.254 17.438,19.218 14.453,20.904 C14.428,19.461 14.456,18.041 14.524,16.660 C17.584,15.275 20.982,14.502 24.562,14.502 C37.980,14.502 48.858,25.345 48.858,38.720 C48.858,52.096 37.980,62.938 24.562,62.938 Z"/>
    <path fill-rule="evenodd" fill="rgb(161, 26, 38)"
          d="M245.622,62.400 L245.622,45.568 L245.321,45.568 L238.074,62.400 L232.941,62.400 L225.694,45.568 L225.392,45.568 L225.392,62.400 L221.014,62.400 L221.014,41.359 L227.506,41.359 L235.356,59.394 L235.658,59.394 L243.509,41.359 L250.000,41.359 L250.000,62.400 L245.622,62.400 ZM215.126,54.149 C214.300,54.780 213.289,55.261 212.091,55.592 C210.894,55.922 209.540,56.087 208.030,56.087 L201.539,56.087 L201.539,62.400 L197.160,62.400 L197.160,41.359 L208.030,41.359 C209.540,41.359 210.893,41.525 212.091,41.855 C213.289,42.186 214.300,42.667 215.126,43.298 C215.951,43.929 216.585,44.701 217.028,45.613 C217.471,46.525 217.692,47.561 217.692,48.723 C217.692,49.886 217.471,50.923 217.028,51.834 C216.585,52.746 215.951,53.518 215.126,54.149 ZM211.729,44.861 C210.853,44.030 209.620,43.614 208.030,43.614 L201.539,43.614 L201.539,53.833 L208.030,53.833 C209.620,53.833 210.853,53.418 211.729,52.586 C212.605,51.755 213.043,50.467 213.043,48.723 C213.043,46.980 212.605,45.693 211.729,44.861 ZM175.722,41.359 L194.141,41.359 L194.141,43.614 L180.101,43.614 L180.101,50.527 L191.121,50.527 L191.121,52.781 L180.101,52.781 L180.101,60.145 L194.141,60.145 L194.141,62.400 L175.722,62.400 L175.722,41.359 ZM165.155,62.400 L160.777,62.400 L160.777,43.614 L152.624,43.614 L152.624,41.359 L173.307,41.359 L173.307,43.614 L165.155,43.614 L165.155,62.400 ZM28.987,50.283 C26.417,49.428 24.559,47.423 23.760,45.022 C24.711,46.162 25.969,47.065 27.477,47.567 C31.839,49.019 36.573,46.621 38.050,42.210 C38.657,40.399 38.611,38.533 38.054,36.858 C39.852,39.017 40.526,42.042 39.560,44.927 C38.083,49.337 33.349,51.735 28.987,50.283 ZM35.687,52.649 C35.687,52.649 28.345,58.783 19.156,49.502 C9.919,40.174 5.717,20.762 15.643,-0.008 C15.643,-0.008 8.414,22.491 16.034,39.050 C20.858,49.534 29.897,54.934 35.687,52.649 ZM3.497,21.251 C6.396,48.648 26.017,56.032 26.017,56.032 C-0.002,50.616 3.497,21.251 3.497,21.251 Z"/>
</svg>