<svg
        xmlns="http://www.w3.org/2000/svg"
        xmlns:xlink="http://www.w3.org/1999/xlink"
        width="43px" height="61px">
    <path fill-rule="evenodd"  fill="rgb(255, 255, 255)"
          d="M41.417,51.853 C39.830,48.813 38.210,45.791 36.550,42.791 C35.029,40.041 32.539,39.304 29.732,40.684 C29.284,40.904 28.832,41.119 28.372,41.314 C26.304,42.191 25.452,41.909 24.368,39.962 C21.700,35.169 19.040,30.371 16.380,25.573 C14.541,22.255 14.677,21.751 17.932,19.732 C20.609,18.072 21.333,15.445 19.838,12.669 C18.321,9.851 16.771,7.051 15.230,4.246 C13.189,0.532 10.120,-0.038 6.780,2.596 C4.919,4.064 3.537,5.969 2.588,8.112 C-0.048,14.062 0.647,21.849 3.664,27.212 C7.699,34.383 11.696,41.578 15.577,48.835 C18.014,53.392 21.533,56.662 26.211,58.617 C30.293,60.324 34.873,60.951 39.009,59.040 C42.033,57.642 42.964,54.816 41.417,51.853 Z"/>
</svg>