<svg width="24" height="15" viewBox="0 0 24 15" fill="none" xmlns="http://www.w3.org/2000/svg">
<path d="M23.057 14.3021H20.4367C19.4451 14.3021 19.1386 13.5133 17.3566 11.7073C15.8046 10.2048 15.1179 10.002 14.7363 10.002C14.2014 10.002 14.0482 10.1552 14.0482 10.893V13.2594C14.0482 13.8964 13.8453 14.278 12.1656 14.278C9.39198 14.278 6.3119 12.5983 4.14984 9.46711C0.892471 4.88756 0 1.45139 0 0.739218C0 0.357589 0.153253 0.00150237 0.890969 0.00150237H3.51129C4.17238 0.00150237 4.4278 0.306505 4.68322 1.01868C5.97986 4.75985 8.14342 8.04276 9.03439 8.04276C9.36494 8.04276 9.51819 7.88951 9.51819 7.05113V3.18074C9.41602 1.39881 8.47397 1.24706 8.47397 0.611508C8.47397 0.305002 8.72939 0 9.13506 0H13.2579C13.8183 0 14.0211 0.305002 14.0211 0.966092V6.1842C14.0211 6.74312 14.2765 6.94745 14.4283 6.94745C14.7588 6.94745 15.0398 6.74312 15.6498 6.13311C17.5339 4.02063 18.8816 0.763259 18.8816 0.763259C19.0604 0.38163 19.3654 0.0255417 20.028 0.0255417H22.6483C23.4371 0.0255417 23.6159 0.431211 23.4371 0.991635C23.1066 2.51965 19.9003 7.04812 19.9003 7.04812C19.6208 7.50638 19.5187 7.70921 19.9003 8.22005C20.1798 8.60168 21.0963 9.39048 21.7078 10.1027C22.8271 11.3753 23.6911 12.4435 23.9209 13.1827C24.1764 13.919 23.7932 14.3006 23.0555 14.3006L23.057 14.3021Z" fill="#496ADC"/>
</svg>
