<svg
        xmlns="http://www.w3.org/2000/svg"
        xmlns:xlink="http://www.w3.org/1999/xlink"
        width="93px" height="140px">
    <path fill-rule="evenodd"  fill="rgb(185, 185, 185)"
          d="M14.466,139.999 C14.460,139.999 14.454,139.999 14.448,139.999 L13.523,139.998 C6.046,139.986 -0.026,133.199 -0.014,124.868 L0.059,79.221 C0.064,76.781 0.591,74.405 1.594,72.263 C0.691,71.754 0.073,70.737 0.074,69.569 L0.080,66.296 C0.081,65.512 0.360,64.770 0.863,64.204 C1.394,63.608 2.142,63.266 2.916,63.266 C2.917,63.266 2.918,63.266 2.921,63.266 L8.685,63.274 L8.747,24.159 L5.667,19.327 L9.622,0.000 L18.793,0.015 L22.686,19.353 L19.592,24.175 L19.530,63.291 L25.293,63.301 C26.856,63.302 28.127,64.665 28.126,66.338 L28.121,69.612 C28.117,70.780 27.497,71.795 26.592,72.302 C27.589,74.447 28.109,76.826 28.105,79.264 L28.033,124.912 C28.020,133.236 21.935,139.999 14.466,139.999 ZM2.916,65.516 C2.761,65.516 2.644,65.612 2.573,65.692 C2.438,65.844 2.360,66.065 2.360,66.299 L2.354,69.572 C2.352,70.035 2.645,70.359 2.908,70.359 L5.277,70.363 L4.273,72.055 C3.011,74.179 2.342,76.659 2.339,79.225 L2.266,124.871 C2.253,131.961 7.305,137.737 13.526,137.747 L14.450,137.749 C14.455,137.749 14.462,137.749 14.466,137.749 C20.681,137.749 25.743,131.992 25.754,124.908 L25.825,79.261 C25.830,76.697 25.169,74.215 23.914,72.085 L22.916,70.390 L25.282,70.394 C25.283,70.394 25.283,70.394 25.283,70.394 C25.546,70.394 25.841,70.071 25.841,69.608 L25.847,66.335 C25.848,65.874 25.554,65.552 25.290,65.551 L17.248,65.538 L17.315,23.521 L20.273,18.909 L16.921,2.263 L11.486,2.255 L8.081,18.890 L11.026,23.510 L11.026,23.836 L10.960,65.529 L2.917,65.516 C2.916,65.516 2.916,65.516 2.916,65.516 ZM82.281,139.647 C81.928,139.647 81.573,139.568 81.241,139.406 C80.435,139.012 79.933,138.216 79.934,137.330 L79.959,122.791 L69.621,116.498 L59.265,122.759 L59.241,137.297 C59.240,138.181 58.738,138.974 57.933,139.365 C57.127,139.756 56.188,139.667 55.477,139.129 C49.593,134.664 46.279,127.919 46.381,120.623 C46.505,111.854 51.718,103.910 59.729,100.180 L59.825,39.984 C51.607,36.138 46.417,27.950 46.543,18.920 C46.642,11.844 49.979,5.313 55.700,1.002 C56.409,0.467 57.350,0.381 58.150,0.773 C58.956,1.168 59.456,1.962 59.455,2.846 L59.430,17.386 L69.768,23.682 L80.126,17.419 L80.148,2.881 C80.149,1.998 80.651,1.205 81.457,0.814 C82.266,0.424 83.204,0.513 83.913,1.052 C89.796,5.516 93.111,12.260 93.008,19.557 C92.886,28.326 87.671,36.269 79.659,39.997 L79.563,100.195 C87.783,104.042 92.972,112.229 92.847,121.258 C92.747,128.340 89.410,134.869 83.688,139.172 C83.276,139.486 82.781,139.647 82.281,139.647 ZM57.176,2.844 C51.921,6.680 48.911,12.570 48.823,18.951 C48.704,27.321 53.650,34.887 61.420,38.228 L62.107,38.523 L62.006,101.646 L61.320,101.939 C53.744,105.176 48.775,112.522 48.661,120.655 C48.567,127.233 51.557,133.316 56.864,137.343 L56.988,121.496 L69.626,113.857 L82.239,121.536 L82.214,137.333 C87.469,133.500 90.479,127.612 90.568,121.227 C90.685,112.859 85.739,105.292 77.968,101.952 L77.282,101.657 L77.382,38.530 L78.068,38.237 C85.647,35.002 90.616,27.657 90.728,19.526 C90.822,12.947 87.832,6.864 82.525,2.837 L82.403,18.681 L69.763,26.324 L57.151,18.642 L57.176,2.844 Z"/>
</svg>