<svg
        xmlns="http://www.w3.org/2000/svg"
        xmlns:xlink="http://www.w3.org/1999/xlink"
        width="135px" height="140px">
    <path fill-rule="evenodd"  fill="rgb(185, 185, 185)"
          d="M115.951,12.939 L121.872,12.939 C122.508,12.939 123.025,12.424 123.025,11.788 C123.025,11.152 122.508,10.637 121.872,10.637 L115.951,10.637 C115.314,10.637 114.798,11.152 114.798,11.788 C114.798,12.424 115.314,12.939 115.951,12.939 ZM121.872,17.128 L82.132,17.128 C81.495,17.128 80.979,17.643 80.979,18.279 C80.979,18.915 81.495,19.430 82.132,19.430 L121.872,19.430 C122.508,19.430 123.025,18.915 123.025,18.279 C123.025,17.643 122.508,17.128 121.872,17.128 ZM121.872,30.074 L81.458,30.074 C80.821,30.074 80.305,30.589 80.305,31.225 C80.305,31.861 80.821,32.376 81.458,32.376 L121.872,32.376 C122.508,32.376 123.025,31.861 123.025,31.225 C123.025,30.589 122.508,30.074 121.872,30.074 ZM72.177,12.939 L110.950,12.939 C111.586,12.939 112.102,12.424 112.102,11.788 C112.102,11.152 111.586,10.637 110.950,10.637 L72.177,10.637 C71.541,10.637 71.025,11.152 71.025,11.788 C71.025,12.424 71.541,12.939 72.177,12.939 ZM121.872,36.562 L115.951,36.562 C115.314,36.562 114.798,37.077 114.798,37.713 C114.798,38.349 115.314,38.863 115.951,38.863 L121.872,38.863 C122.508,38.863 123.025,38.349 123.025,37.713 C123.025,37.077 122.508,36.562 121.872,36.562 ZM121.872,23.600 L115.951,23.600 C115.314,23.600 114.798,24.115 114.798,24.751 C114.798,25.387 115.314,25.902 115.951,25.902 L121.872,25.902 C122.508,25.902 123.025,25.387 123.025,24.751 C123.025,24.115 122.508,23.600 121.872,23.600 ZM134.017,66.770 L116.505,64.140 C116.004,61.240 115.236,58.369 114.218,55.583 L121.618,49.692 L132.397,49.692 C133.034,49.692 133.550,49.177 133.550,48.541 L133.550,1.152 C133.550,0.516 133.034,0.001 132.397,0.001 L61.651,0.001 C61.015,0.001 60.498,0.516 60.498,1.152 L60.498,13.668 L58.979,23.768 C56.095,24.266 53.211,25.036 50.383,26.066 L39.360,12.245 C39.005,11.799 38.378,11.676 37.881,11.965 L29.634,16.719 C29.141,17.002 28.930,17.605 29.138,18.134 L35.613,34.586 C33.347,36.489 31.241,38.589 29.337,40.847 L12.841,34.388 C12.314,34.185 11.708,34.391 11.422,34.884 L6.659,43.111 C6.374,43.606 6.492,44.233 6.939,44.587 L20.795,55.585 C19.765,58.400 18.992,61.271 18.494,64.140 L0.982,66.770 C0.417,66.854 0.001,67.338 0.001,67.907 L0.001,77.410 C0.001,77.979 0.418,78.462 0.982,78.547 L18.494,81.176 C18.994,84.064 19.766,86.936 20.794,89.734 L6.939,100.745 C6.492,101.101 6.374,101.729 6.659,102.221 L11.422,110.449 C11.707,110.942 12.310,111.154 12.842,110.943 L29.337,104.470 C31.270,106.765 33.375,108.866 35.612,110.733 L29.138,127.185 C28.930,127.713 29.141,128.317 29.634,128.600 L37.881,133.352 C38.375,133.639 39.004,133.517 39.360,133.074 L50.382,119.266 C53.169,120.281 56.053,121.046 58.978,121.547 L61.597,139.015 C61.681,139.579 62.166,139.997 62.737,139.997 L72.263,139.997 C72.834,139.997 73.318,139.581 73.403,139.017 L76.039,121.547 C78.978,121.043 81.857,120.277 84.620,119.268 L95.655,133.074 C96.011,133.518 96.639,133.639 97.133,133.352 L105.383,128.600 C105.876,128.317 106.088,127.713 105.879,127.183 L99.388,110.734 C101.651,108.859 103.764,106.756 105.681,104.470 L122.157,110.928 C122.686,111.140 123.291,110.928 123.576,110.434 L128.339,102.221 C128.625,101.729 128.506,101.101 128.060,100.747 L114.219,89.734 C115.234,86.967 116.001,84.095 116.505,81.176 L134.017,78.547 C134.581,78.462 134.998,77.979 134.998,77.410 L134.998,67.907 C134.998,67.338 134.581,66.854 134.017,66.770 ZM62.804,2.302 L131.244,2.302 L131.244,47.390 L99.991,47.390 C99.756,47.390 99.527,47.463 99.334,47.596 L73.724,65.297 L73.724,48.541 C73.724,47.905 73.208,47.390 72.572,47.390 L62.804,47.390 L62.804,2.302 ZM64.606,49.692 L71.419,49.692 L71.419,67.494 C71.419,67.923 71.657,68.315 72.036,68.514 C72.205,68.600 72.389,68.645 72.572,68.645 C72.802,68.645 73.032,68.576 73.228,68.439 L86.443,59.305 C89.228,63.247 90.712,67.835 90.712,72.659 C90.712,85.427 80.299,95.813 67.500,95.813 C54.711,95.813 44.306,85.427 44.306,72.659 C44.306,61.003 53.030,51.139 64.606,49.692 ZM132.693,76.420 L115.331,79.026 C114.832,79.100 114.440,79.491 114.363,79.987 C113.848,83.314 112.975,86.580 111.770,89.697 C111.589,90.167 111.733,90.698 112.126,91.011 L125.847,101.927 L122.077,108.425 L105.746,102.024 C105.277,101.836 104.744,101.981 104.427,102.370 C102.290,105.007 99.888,107.397 97.286,109.478 C96.891,109.792 96.749,110.326 96.933,110.796 L103.369,127.103 L96.840,130.866 L85.900,117.178 C85.586,116.786 85.051,116.644 84.583,116.823 C81.473,118.022 78.198,118.893 74.848,119.410 C74.349,119.487 73.958,119.878 73.884,120.376 L71.271,137.695 L63.731,137.695 L61.135,120.377 C61.060,119.878 60.669,119.486 60.169,119.410 C56.840,118.898 53.559,118.029 50.416,116.823 C49.945,116.641 49.413,116.784 49.101,117.178 L38.175,130.866 L31.647,127.103 L38.065,110.795 C38.249,110.328 38.107,109.796 37.716,109.480 C35.147,107.413 32.749,105.019 30.588,102.368 C30.270,101.979 29.735,101.838 29.272,102.024 L12.922,108.441 L9.152,101.927 L22.888,91.012 C23.281,90.698 23.426,90.167 23.245,89.697 C22.022,86.535 21.144,83.269 20.636,79.987 C20.559,79.491 20.166,79.100 19.667,79.026 L2.306,76.420 L2.306,68.897 L19.667,66.289 C20.166,66.215 20.559,65.824 20.636,65.328 C21.140,62.074 22.018,58.806 23.246,55.618 C23.426,55.148 23.280,54.617 22.887,54.305 L9.152,43.403 L12.923,36.892 L29.272,43.294 C29.740,43.479 30.272,43.338 30.588,42.949 C32.708,40.346 35.108,37.953 37.719,35.834 C38.108,35.519 38.248,34.987 38.065,34.522 L31.647,18.215 L38.175,14.451 L49.100,28.152 C49.413,28.546 49.944,28.690 50.415,28.510 C53.617,27.287 56.899,26.409 60.170,25.906 C60.287,25.887 60.396,25.849 60.498,25.799 L60.498,48.208 C49.725,51.278 42.001,61.166 42.001,72.659 C42.001,86.695 53.440,98.115 67.500,98.115 C81.570,98.115 93.017,86.695 93.017,72.659 C93.017,67.361 91.391,62.324 88.337,57.996 L100.351,49.692 L117.923,49.692 L112.126,54.306 C111.733,54.619 111.589,55.150 111.769,55.618 C112.979,58.762 113.852,62.029 114.363,65.328 C114.440,65.824 114.832,66.215 115.331,66.289 L132.693,68.897 L132.693,76.420 ZM111.566,37.713 C111.566,37.077 111.050,36.562 110.413,36.562 L72.177,36.562 C71.541,36.562 71.025,37.077 71.025,37.713 C71.025,38.349 71.541,38.863 72.177,38.863 L110.413,38.863 C111.050,38.863 111.566,38.349 111.566,37.713 ZM72.177,25.902 L107.549,25.902 C108.186,25.902 108.702,25.387 108.702,24.751 C108.702,24.115 108.186,23.600 107.549,23.600 L72.177,23.600 C71.541,23.600 71.025,24.115 71.025,24.751 C71.025,25.387 71.541,25.902 72.177,25.902 ZM72.177,19.430 L78.096,19.430 C78.733,19.430 79.249,18.915 79.249,18.279 C79.249,17.643 78.733,17.128 78.096,17.128 L72.177,17.128 C71.541,17.128 71.025,17.643 71.025,18.279 C71.025,18.915 71.541,19.430 72.177,19.430 ZM72.177,32.376 L78.096,32.376 C78.733,32.376 79.249,31.861 79.249,31.225 C79.249,30.589 78.733,30.074 78.096,30.074 L72.177,30.074 C71.541,30.074 71.025,30.589 71.025,31.225 C71.025,31.861 71.541,32.376 72.177,32.376 Z"/>
</svg>