<svg
        xmlns="http://www.w3.org/2000/svg"
        xmlns:xlink="http://www.w3.org/1999/xlink"
        width="126px" height="140px">
    <path fill-rule="evenodd"  fill="rgb(185, 185, 185)"
          d="M78.278,88.165 L18.131,88.165 C17.492,88.165 16.975,88.680 16.975,89.315 C16.975,89.950 17.492,90.465 18.131,90.465 L78.278,90.465 C78.917,90.465 79.434,89.950 79.434,89.315 C79.434,88.680 78.917,88.165 78.278,88.165 ZM18.131,81.059 L63.220,81.059 C63.859,81.059 64.376,80.544 64.376,79.909 C64.376,79.274 63.859,78.759 63.220,78.759 L18.131,78.759 C17.492,78.759 16.975,79.274 16.975,79.909 C16.975,80.544 17.492,81.059 18.131,81.059 ZM78.278,97.572 L30.755,97.572 C30.116,97.572 29.599,98.087 29.599,98.722 C29.599,99.357 30.116,99.872 30.755,99.872 L78.278,99.872 C78.917,99.872 79.434,99.357 79.434,98.722 C79.434,98.087 78.917,97.572 78.278,97.572 ZM78.278,106.960 L18.131,106.960 C17.492,106.960 16.975,107.475 16.975,108.110 C16.975,108.745 17.492,109.260 18.131,109.260 L78.278,109.260 C78.917,109.260 79.434,108.745 79.434,108.110 C79.434,107.475 78.917,106.960 78.278,106.960 ZM78.278,69.368 L36.876,69.368 C36.237,69.368 35.719,69.883 35.719,70.518 C35.719,71.153 36.237,71.668 36.876,71.668 L78.278,71.668 C78.917,71.668 79.434,71.153 79.434,70.518 C79.434,69.883 78.917,69.368 78.278,69.368 ZM78.278,59.962 L18.131,59.962 C17.492,59.962 16.975,60.477 16.975,61.112 C16.975,61.747 17.492,62.262 18.131,62.262 L78.278,62.262 C78.917,62.262 79.434,61.747 79.434,61.112 C79.434,60.477 78.917,59.962 78.278,59.962 ZM95.252,5.763 L86.633,5.763 L86.633,1.145 C86.633,0.511 86.116,-0.005 85.477,-0.005 C84.838,-0.005 84.321,0.511 84.321,1.145 L84.321,5.763 L74.202,5.763 L74.202,1.145 C74.202,0.511 73.685,-0.005 73.046,-0.005 C72.407,-0.005 71.890,0.511 71.890,1.145 L71.890,5.763 L61.778,5.763 L61.778,1.145 C61.778,0.511 61.261,-0.005 60.622,-0.005 C59.983,-0.005 59.465,0.511 59.465,1.145 L59.465,5.763 L49.352,5.763 L49.352,1.145 C49.352,0.511 48.834,-0.005 48.196,-0.005 C47.557,-0.005 47.040,0.511 47.040,1.145 L47.040,5.763 L36.926,5.763 L36.926,1.145 C36.926,0.511 36.409,-0.005 35.770,-0.005 C35.131,-0.005 34.613,0.511 34.613,1.145 L34.613,5.763 L24.500,5.763 L24.500,1.145 C24.500,0.511 23.983,-0.005 23.344,-0.005 C22.705,-0.005 22.188,0.511 22.188,1.145 L22.188,5.763 L12.070,5.763 L12.070,1.145 C12.070,0.511 11.553,-0.005 10.914,-0.005 C10.275,-0.005 9.758,0.511 9.758,1.145 L9.758,5.763 L1.151,5.763 C0.513,5.763 -0.005,6.278 -0.005,6.913 L-0.005,138.851 C-0.005,139.486 0.513,140.001 1.151,140.001 L95.252,140.001 C95.891,140.001 96.408,139.486 96.408,138.851 L96.408,6.913 C96.408,6.278 95.891,5.763 95.252,5.763 ZM94.096,137.701 L2.308,137.701 L2.308,8.063 L9.758,8.063 L9.758,12.678 C9.758,13.314 10.275,13.829 10.914,13.829 C11.553,13.829 12.070,13.314 12.070,12.678 L12.070,8.063 L22.188,8.063 L22.188,12.678 C22.188,13.314 22.705,13.829 23.344,13.829 C23.983,13.829 24.500,13.314 24.500,12.678 L24.500,8.063 L34.613,8.063 L34.613,12.678 C34.613,13.314 35.131,13.829 35.770,13.829 C36.409,13.829 36.926,13.314 36.926,12.678 L36.926,8.063 L47.040,8.063 L47.040,12.678 C47.040,13.314 47.557,13.829 48.196,13.829 C48.834,13.829 49.352,13.314 49.352,12.678 L49.352,8.063 L59.465,8.063 L59.465,12.678 C59.465,13.314 59.983,13.829 60.622,13.829 C61.261,13.829 61.778,13.314 61.778,12.678 L61.778,8.063 L71.890,8.063 L71.890,12.678 C71.890,13.314 72.407,13.829 73.046,13.829 C73.685,13.829 74.202,13.314 74.202,12.678 L74.202,8.063 L84.321,8.063 L84.321,12.678 C84.321,13.314 84.838,13.829 85.477,13.829 C86.116,13.829 86.633,13.314 86.633,12.678 L86.633,8.063 L94.096,8.063 L94.096,137.701 ZM125.746,114.640 L125.746,40.832 L125.746,35.399 C125.746,31.767 122.777,28.811 119.128,28.811 L109.006,28.811 C105.357,28.811 102.389,31.767 102.389,35.399 L102.389,40.832 L102.389,115.312 C102.389,115.349 102.410,115.382 102.414,115.419 C102.423,115.516 102.445,115.608 102.479,115.701 C102.492,115.738 102.488,115.779 102.505,115.814 L110.031,131.244 C110.032,131.246 110.031,131.248 110.032,131.250 L113.030,137.394 C113.176,137.691 113.439,137.907 113.748,137.996 C113.851,138.026 113.959,138.041 114.070,138.041 C114.291,138.041 114.503,137.979 114.683,137.866 C114.864,137.753 115.013,137.591 115.110,137.393 L125.362,116.363 C125.550,116.267 125.716,116.124 125.833,115.930 C126.082,115.511 126.029,115.002 125.746,114.640 ZM104.701,41.983 L107.103,41.983 L107.103,111.356 C107.089,111.365 107.071,111.368 107.057,111.378 L104.701,113.066 L104.701,41.983 ZM114.069,134.255 L112.793,131.640 C113.614,131.564 114.518,131.564 115.342,131.640 L114.069,134.255 ZM116.400,129.477 C114.892,129.247 113.243,129.246 111.738,129.475 L105.009,115.680 L107.607,113.818 L109.923,116.138 C110.140,116.355 110.433,116.477 110.740,116.477 L110.742,116.477 C111.048,116.477 111.343,116.357 111.560,116.140 L113.605,114.104 C113.633,114.106 113.657,114.120 113.686,114.120 C113.688,114.120 113.690,114.120 113.691,114.120 C113.861,114.119 114.020,114.078 114.165,114.012 L117.280,116.245 C117.714,116.554 118.306,116.529 118.710,116.183 L120.861,114.334 L123.129,115.672 L116.400,129.477 ZM109.416,112.367 L109.416,41.983 L112.205,41.983 L112.525,111.925 L110.744,113.697 L109.416,112.367 ZM114.518,41.983 L118.026,41.983 L118.026,113.731 L117.891,113.848 L114.836,111.658 L114.518,41.983 ZM123.434,113.177 L121.324,111.932 C121.022,111.752 120.659,111.732 120.339,111.849 L120.339,41.983 L123.434,41.983 L123.434,113.177 ZM123.434,39.682 L113.356,39.682 L113.351,39.682 L104.701,39.682 L104.701,35.399 C104.701,33.035 106.631,31.112 109.006,31.112 L119.128,31.112 C121.503,31.112 123.434,33.035 123.434,35.399 L123.434,39.682 ZM79.438,25.662 L16.971,25.662 C16.332,25.662 15.815,26.177 15.815,26.813 L15.815,41.821 C15.815,42.456 16.332,42.971 16.971,42.971 L79.438,42.971 C80.077,42.971 80.594,42.456 80.594,41.821 L80.594,26.813 C80.594,26.177 80.077,25.662 79.438,25.662 ZM78.282,40.671 L18.127,40.671 L18.127,27.963 L78.282,27.963 L78.282,40.671 ZM78.278,50.553 L18.131,50.553 C17.492,50.553 16.975,51.068 16.975,51.703 C16.975,52.339 17.492,52.854 18.131,52.854 L78.278,52.854 C78.917,52.854 79.434,52.339 79.434,51.703 C79.434,51.068 78.917,50.553 78.278,50.553 Z"/>
</svg>